<svg version="1" xmlns="http://www.w3.org/2000/svg" width="1306.667" height="1306.667" viewBox="0 0 980.000000 980.000000"><path d="M752.3 6.1c-13.1 8.1-19 12.7-27.8 22.1-20.1 21.4-32.1 48.9-34.1 78.3-1.4 20 2.5 33.5 28.4 98 17.4 43.4 26.5 63.7 32.5 72.5 4.7 6.8 19.2 21.5 27.4 27.6 13.5 10.2 31.1 18.1 49 22 10.3 2.3 35.1 2.3 48.3.1 5.2-.9 9.5-1.5 9.6-1.4.1.1 2.9 8.7 6.3 19.2 16.1 50.5 20.4 78.4 20.5 135 0 33.1-1 43.1-6.4 65.2-33.2 136.2-164 242.8-330 269.2-71.8 11.4-145.3 8.5-213.2-8.5C297.1 789 238.4 760 188 719.2c-13.8-11.2-42.2-39.8-53.4-53.7-24.5-30.6-43.6-65.7-55-101.4-7-21.7-9.6-34.3-10.8-52.6-1.4-22.8-.4-81.5 1.7-95 3.3-21.4 14.5-64.4 20.5-78.8 5-12 3.8-11.3 17.1-9.1 14.6 2.4 33.2 2.4 44.9 0 23.7-5 46.3-17.6 63.8-35.5 14.9-15.2 19.1-23.5 48.7-97.1 21.3-53.1 25.2-66.9 24.1-86.5-1.2-22.7-8.6-44.6-21.6-64.1C258.4 31 238.5 13 224 5.5c-5.6-2.9-15.2-2.9-68.4.5-49.2 3-63.5 4.3-66.7 6-1.9 1-11.5 22-31.4 68.5C24.9 156.6 0 217.7 0 221.6c0 4.3 12.4 19 75.2 89 1.9 2.2 1.9 2.3-4.7 22.5-11.7 35.5-19.1 68.7-22.7 101.4-2 18.6-1.7 73.2.5 91.5 6.7 53.7 21.6 102.7 46.2 151.5 29.1 57.8 69.2 107 120.4 147.7 27.5 21.8 25.5 19.8 24.2 23.1-.6 1.5-5.1 9.2-10 17-15.8 25.2-16.7 27.8-10.8 33.4 8 7.8 47.8 29 79.2 42.3 36.9 15.6 78.5 27.7 114.5 33.4 37.8 6 112.3 6.8 147.1 1.7 57.4-8.5 108.7-24.5 157.4-49.1 29.3-14.7 51.5-29.4 51.5-34 0-2.7-5.7-13-16.8-30.2-5.4-8.4-10.1-15.8-10.5-16.5-.5-.8 4.6-5.3 14.5-13 59.5-45.9 101.2-96.3 133-160.8 31.1-63.1 45.8-125.2 45.8-193.4 0-53.2-7.3-95.8-25.4-149.6l-5.4-16 3.4-4.5c2-2.5 14.9-17.1 28.7-32.4 28.7-31.9 40.9-46.2 43.3-50.7 1-2.1 1.4-4.6 1.1-7.1-1.2-9.1-81.6-202.1-86-206.5-1.9-1.8-23.9-4-90.2-8.8C784.3 2.1 767.1.8 765.3.6c-2.5-.4-5.1.8-13 5.5zm63.5 18.1c1.5.7 3.9 3.6 5.4 6.3 6.1 11.1 24.4 54.2 73.3 173 22.6 54.7 24.6 60.1 23.4 62.1-2.8 4.5-23.3 26.4-24.1 25.6-1.1-1.1-30.4-71.3-75-180.2C793 48.3 783 23.4 783 22.3c0-1.2 30 .6 32.8 1.9zm-618.8.4c0 1.6-109.2 267-110.4 268.1-.4.4-18.2-19.7-21.3-24l-2.4-3.3 2.5-6.5c5.9-15.6 71-174.3 88.3-215.2 8-18.9 7.4-18.2 15.3-19 6-.6 28-.7 28-.1zm605 99.6c46.3 112.4 72.5 176.2 73.4 179.5 1.2 3.8-4.3 4.8-26.9 4.8-18.2 0-20.7-.2-27.5-2.3-11.4-3.6-21.5-8.6-28.4-14.1-8.3-6.6-23.8-22.9-27-28.3-6.7-11.5-50.5-118.8-54.2-132.7-3.2-12.2-1.5-36.9 3.8-53.9 4.3-14.1 13.2-27.1 27.2-39.7 6.4-5.9 16.2-13.3 17.7-13.4.3-.1 19.1 45 41.9 100.1zM226.9 29.9c11.6 7.9 27.2 25.7 33.7 38.4 1.4 2.6 3.9 8.9 5.6 14 2.8 8.2 3.1 10.8 3.6 24.3.5 17.1-.4 23.9-5 37.6-7 21.1-40 100.7-48.4 116.8-11.2 21.6-34.2 40.6-57 47.2-7 2-10.1 2.3-26.9 2.3-21.5 0-26.5-.7-26.5-3.4 0-4.8 14-40.6 48.3-123.6C204.8 61.2 219.5 26 220.3 26c.4 0 3.4 1.8 6.6 3.9zm-92.3-2.1c2 .7 1.9 1.1-3.3 14.2-12.8 31.8-38.1 93.6-60.6 147.9l-24.1 58.5-8.4-9c-4.6-4.9-10.3-11.5-12.7-14.7l-4.4-5.7 7.8-19.3C53.7 138.8 98 33.9 100.1 31.3c1.2-1.4 6.7-2.4 18.4-3.3 11.8-.9 13.6-.9 16.1-.2zM876.7 29l5.1 1.1 5 11.7c10.7 25 54.5 131.8 66.3 161.6l5.9 14.9-2 3.1c-2.7 4.5-20.3 24-21.4 23.9-.5-.1-6.8-14-13.9-31-14.6-35-75.5-181.6-76.9-185.2l-.9-2.4 13.8.6c7.6.3 16.1 1.1 19 1.7zM137 698.4c65.1 67.8 152.3 114.5 248.5 133 56.2 10.8 116.1 12.9 172 6 56-6.9 112.2-23.7 162-48.6 46.6-23.2 81.2-48.3 119.5-86.7l23.4-23.6-3.8 7c-2.1 3.9-8.9 14.6-15.1 24-24.7 37-51.1 66.4-85 94.6-13.1 10.9-29 22.9-30.4 22.9-.4 0-1.4-1.3-2.4-2.9-.9-1.5-3.8-5.2-6.4-8.1-4.4-4.9-4.9-5.2-8.4-4.7-2.2.3-10.8 4.4-20.1 9.6-103.1 57.4-216.7 68.9-326.6 33-25.5-8.4-55.5-21.7-73.6-32.9-9.7-5.9-18.3-10-20.9-10-2.6 0-6.5 3.8-12.4 12.2l-4 5.7-14.9-11.6C186 776.6 148.5 734.1 122 685.5l-4.4-8 5.4 6c3 3.3 9.3 10 14 14.9zm148.2 142.2c41 22.4 75.3 35.2 117.9 43.8 63.9 13 125.9 12.2 185.6-2.4 33.3-8.2 63.4-19.4 95.8-35.5 11.6-5.8 21.8-10.5 22.6-10.5 2.3 0 3 1 21 27.9l16.2 24.5-3.3 2.7c-10.9 9.1-69.4 36.1-100.4 46.3-23.3 7.7-57 15.6-84.1 19.7-23.8 3.7-94.5 3.5-131-.2-28.2-2.9-73.1-14.9-110.5-29.6-26-10.2-73.2-34.1-74.7-37.8-1.1-3.2 30.6-54.5 33.7-54.5.5 0 5.6 2.5 11.2 5.6z"/></svg>